<?xml version="1.0" encoding="utf-8"?>
<!-- Generator: Adobe Illustrator 27.3.1, SVG Export Plug-In . SVG Version: 6.00 Build 0)  -->
<svg version="1.1" id="Layer_1" xmlns="http://www.w3.org/2000/svg" xmlns:xlink="http://www.w3.org/1999/xlink" x="0px" y="0px"
	 viewBox="0 0 1920 1080" style="enable-background:new 0 0 1920 1080;" xml:space="preserve">
<style type="text/css">
	.st0{fill:#FFFFFF;}
</style>
<g>
	<g>
		<path class="st0" d="M1558.07,51.14c39.07,0,78.14,0,117.2,0c0,309.24,0,618.49,0,927.73c-432.44,0-864.87,0-1297.31,0
			c0-309.24,0-618.49,0-927.73c33.01,0,66.01,0,99.02,0c0,5.81,0,11.63,0,18.14c-7.14,0-13.42,0-20.31,0c0,8.16,0,15.64,0,23.9
			c-6.89,0-13.15,0-19.83,0c0,265.35,0,529.9,0,795.32c6.68,0,12.96,0,19.4,0c0.45,8.44,0.85,16.02,1.29,24.41
			c6.44,0.29,12.69,0.57,19.47,0.87c0,6.3,0,11.94,0,18.21c360.51,0,720.44,0,1080.97,0c0-6.59,0-12.51,0-18.34
			c6.58-2.05,13.29,1.81,19.09-1.55c0.01-0.55,0.03-1.1,0.04-1.65c-5.85-0.42-11.7-0.85-17.55-1.27c0.03-0.5,0.06-1,0.09-1.51
			c5.76,0,11.53,0,18.08,0c0-6.58,0-12.52,0-19.2c7.06,0,13.34,0,19.7,0c0-265.33,0-529.9,0-795.34c-6.7,0-12.96,0-19.88,0
			c0-8.42,0-15.99,0-24.09c-6.85,0-13.01,0-19.49,0C1558.07,62.7,1558.07,56.92,1558.07,51.14z M1614.96,944.89
			c-1.35,4.71,0.64,6.02,4.76,5.99c15.98-0.1,31.96-0.03,47.94-0.07c1.13,0,2.26-0.3,3.31-0.44c1.27-4.53-0.52-6.05-4.75-6.02
			c-15.81,0.11-31.62,0.05-47.44,0.1C1617.5,944.45,1616.21,944.74,1614.96,944.89z"/>
		<path d="M1558.07,51.14c0,5.78,0,11.56,0,17.9c6.48,0,12.64,0,19.49,0c0,8.1,0,15.67,0,24.09c6.92,0,13.18,0,19.88,0
			c0,265.44,0,530.01,0,795.34c-6.37,0-12.64,0-19.7,0c0,6.68,0,12.62,0,19.2c-6.55,0-12.32,0-18.08,0c-0.03,0.5-0.06,1-0.09,1.51
			c5.85,0.42,11.7,0.85,17.55,1.27c-0.01,0.55-0.03,1.1-0.04,1.65c-5.81,3.36-12.51-0.5-19.09,1.55c0,5.83,0,11.75,0,18.34
			c-360.53,0-720.46,0-1080.97,0c0-6.27,0-11.91,0-18.21c-6.78-0.3-13.03-0.58-19.47-0.87c-0.44-8.39-0.85-15.97-1.29-24.41
			c-6.43,0-12.72,0-19.4,0c0-265.42,0-529.97,0-795.32c6.67,0,12.93,0,19.83,0c0-8.26,0-15.73,0-23.9c6.89,0,13.17,0,20.31,0
			c0-6.51,0-12.33,0-18.14C837.34,51.14,1197.7,51.14,1558.07,51.14z M487.61,921.29c353.24,0,706.01,0,1059.35,0
			c-0.23-2.95-0.4-5.17-0.65-8.44c-43.09,0-85.66,0-128.35,0c1.42-10.87,5.9-14.88,15.6-14.88c35.53-0.01,71.06-0.01,106.59-0.01
			c1.97,0,3.93,0,6.33,0c0-3.24,0-5.82,0-8.89c-2.24-0.2-4.37-0.55-6.5-0.55c-32.84,0-65.67,0.05-98.51,0.04
			c-1.26,0-2.52-0.53-4.14-0.89c4.85-7.11,10.25-10.22,18.56-10.06c28.11,0.52,56.24,0.2,84.36,0.2c1.97,0,3.93,0,6.58,0
			c0-2.78,0-4.91,0-7.04c-0.02-33.11-0.03-66.22-0.05-99.33c0-6.88,4.1-12.01,11.51-13.95c0,40.02,0,79.93,0,120.02
			c3.03,0,5.6,0,8.48,0c0.09-2.01,0.24-3.66,0.24-5.3c0-39.83-0.01-79.66-0.03-119.49c0-8.27,2.53-11.91,11.42-15.56
			c0,46.96,0,93.66,0,140.87c3.26-0.21,5.83-0.37,8.39-0.54c0-258.13,0-515.68,0-773.47c-2.88,0-5.34,0-8.61,0
			c0,46.75,0,93.26,0,140.03c-7.47-2.39-11.18-7.16-11.18-13.69c-0.01-40.17,0-80.34-0.01-120.5c0-1.93-0.17-3.85-0.26-5.76
			c-3.16,0-5.62,0-8.86,0c0,40.07,0,79.85,0,119.93c-7.99-3.17-11.01-7.29-11.02-14.47c-0.03-33.11-0.02-66.22-0.04-99.33
			c0-1.96-0.16-3.92-0.28-6.41c-2.43,0-4.41,0-6.39,0c-28.63,0-57.26-0.31-85.88,0.19c-8.24,0.14-12.4-4.36-16.69-11.02
			c36.28,0,72.55,0,109.47,0c-0.2-3.81-0.34-6.36-0.5-9.34c-2.65,0-4.64,0-6.64,0c-35.53,0-71.06,0.01-106.59-0.01
			c-9.19,0-13.85-4.77-14.11-14.92c42.32,0,84.63,0,127.15,0c0-3.3,0-6,0-8.72c-353.19,0-705.83,0-1058.55,0c0,3.27,0,5.98,0,9.06
			c42.8,0,85.07,0,127.42,0c-2.11,12.82-4.18,14.58-16.63,14.59c-35.03,0-70.05,0-105.08,0c-1.93,0-3.87,0-5.93,0
			c0,3.5,0,6.1,0,9.49c36.59,0,72.78,0,108.97,0c-4.05,6.06-7.67,10.97-15.81,10.85c-29.13-0.45-58.26-0.17-87.39-0.17
			c-1.93,0-3.86,0-6.03,0c0,2.88,0,4.89,0,6.9c0.04,33.11,0.08,66.22,0.12,99.32c0.01,6.09-3.81,11.57-10.65,14.39
			c0-40.18,0-80.02,0-120.23c-3.6,0-6.32,0-9.12,0c0,3.3,0,6.29,0,9.28c0.07,38.32-0.03,76.64,0.34,114.95
			c0.08,8.06-5.23,11.51-9.62,16.08c-0.52-0.14-1.04-0.27-1.56-0.41c0-46.54,0-93.09,0-139.97c-3.63,0-6.36,0-8.8,0
			c0,258.06,0,515.74,0,773.34c3.11,0,5.56,0,8.81,0c0-46.93,0-93.48,0-140.03c0.47-0.13,0.94-0.27,1.41-0.4
			c4.4,4.11,9.63,7.26,9.58,14.91c-0.26,39.66-0.21,79.32-0.25,118.99c0,2.12,0.25,4.25,0.39,6.48c3.05,0,5.62,0,9.22,0
			c0-40.31,0-80.2,0-120.08c5.39,3.93,10.53,6.77,10.45,14.2c-0.38,32.94-0.25,65.88-0.31,98.82c0,2.3,0,4.6,0,7.46
			c2.6,0,4.58,0,6.55,0c29.64,0,59.27-0.01,88.91,0.01c5.86,0,11.26,4.06,13.76,10.96c-36.54,0-72.71,0-108.83,0
			c0,3.66,0,6.24,0,9.2c2.4,0,4.4,0,6.4,0c35.87-0.01,71.74,0.04,107.6-0.09c6.96-0.03,11.01,3.67,14.7,9.31
			c-1.74,0.66-2.97,1.13-4.4,1.67c1.85,0.62,3.35,1.13,4.85,1.64c0.04,0.56,0.08,1.13,0.12,1.69c-1.83,0.4-3.66,1.14-5.49,1.14
			c-39.23-0.12-78.46-0.34-117.69-0.5c-1.98-0.01-3.96,0.32-6.2,0.51C487.61,915.99,487.61,918.27,487.61,921.29z M1422.87,908.15
			c0,0.37,0.01,0.73,0.01,1.1c40.5,0,81,0,121.49,0c0-0.37,0-0.73,0-1.1C1503.88,908.15,1463.38,908.15,1422.87,908.15z
			 M489.88,908.11c-0.03,0.33-0.06,0.66-0.08,1c39.12,0,78.25,0,117.37,0c0-0.33,0-0.66,0-1
			C568.07,908.11,528.98,908.11,489.88,908.11z M477.56,84.08c-4.42,0-7.13,0-11.13,0c0.82,3.35,0.84,6.55,2.4,8.54
			c0.87,1.11,5.46,1.12,6.34,0.01C476.73,90.67,476.73,87.48,477.56,84.08z M1556.88,83.82c0.66,3.43,0.37,6.93,1.98,8.64
			c1.15,1.22,6.06,1.01,7.13-0.31c1.46-1.8,0.87-5.27,1.2-8.33C1563.45,83.82,1560.97,83.82,1556.88,83.82z M1566.77,888.53
			c-3.04,0.19-6.81-0.64-8.13,0.79c-1.57,1.69-1.03,5.33-1.5,8.89c3.97-0.27,6.69-0.45,9.63-0.65
			C1566.77,894.46,1566.77,892.01,1566.77,888.53z M476.52,888.38c-3.18,0.38-6.71-0.21-8.23,1.27c-1.44,1.4-0.78,4.96-1.09,7.95
			c3.78,0,6.36,0,9.32,0C476.52,894.79,476.52,892.37,476.52,888.38z M475.71,909.31c0-0.32,0-0.63,0-0.95c-5.09,0-10.17,0-15.26,0
			c0.01,0.32,0.01,0.63,0.02,0.95C465.55,909.31,470.63,909.31,475.71,909.31z"/>
		<path d="M1614.96,944.89c1.25-0.15,2.54-0.44,3.83-0.44c15.81-0.04,31.63,0.01,47.44-0.1c4.22-0.03,6.02,1.49,4.75,6.02
			c-1.05,0.15-2.18,0.44-3.31,0.44c-15.98,0.03-31.96-0.03-47.94,0.07C1615.6,950.9,1613.61,949.6,1614.96,944.89z"/>
		<path class="st0" d="M487.61,921.29c0-3.02,0-5.29,0-7.97c2.24-0.19,4.22-0.52,6.2-0.51c39.23,0.16,78.46,0.37,117.69,0.5
			c1.83,0.01,3.66-0.74,5.49-1.14c-0.04-0.56-0.08-1.13-0.12-1.69c-1.5-0.51-3-1.01-4.85-1.64c1.43-0.54,2.66-1.01,4.4-1.67
			c-3.69-5.64-7.74-9.33-14.7-9.31c-35.87,0.14-71.74,0.08-107.6,0.09c-2,0-3.99,0-6.4,0c0-2.96,0-5.54,0-9.2
			c36.12,0,72.29,0,108.83,0c-2.5-6.9-7.89-10.95-13.76-10.96c-29.64-0.02-59.27-0.01-88.91-0.01c-1.97,0-3.95,0-6.55,0
			c0-2.86,0-5.16,0-7.46c0.06-32.94-0.07-65.88,0.31-98.82c0.09-7.42-5.06-10.27-10.45-14.2c0,39.89,0,79.77,0,120.08
			c-3.6,0-6.17,0-9.22,0c-0.14-2.23-0.4-4.36-0.39-6.48c0.03-39.66-0.01-79.33,0.25-118.99c0.05-7.64-5.18-10.79-9.58-14.91
			c-0.47,0.13-0.94,0.27-1.41,0.4c0,46.55,0,93.1,0,140.03c-3.26,0-5.71,0-8.81,0c0-257.6,0-515.28,0-773.34c2.45,0,5.17,0,8.8,0
			c0,46.89,0,93.43,0,139.97c0.52,0.14,1.04,0.27,1.56,0.41c4.39-4.56,9.7-8.01,9.62-16.08c-0.37-38.32-0.27-76.64-0.34-114.95
			c-0.01-2.99,0-5.98,0-9.28c2.8,0,5.53,0,9.12,0c0,40.22,0,80.05,0,120.23c6.84-2.82,10.66-8.3,10.65-14.39
			c-0.04-33.11-0.08-66.22-0.12-99.32c0-2.01,0-4.02,0-6.9c2.17,0,4.1,0,6.03,0c29.13,0,58.27-0.27,87.39,0.17
			c8.14,0.12,11.77-4.79,15.81-10.85c-36.19,0-72.38,0-108.97,0c0-3.39,0-5.99,0-9.49c2.06,0,4,0,5.93,0c35.03,0,70.05,0,105.08,0
			c12.46,0,14.52-1.77,16.63-14.59c-42.34,0-84.62,0-127.42,0c0-3.08,0-5.79,0-9.06c352.72,0,705.36,0,1058.55,0
			c0,2.72,0,5.42,0,8.72c-42.52,0-84.83,0-127.15,0c0.26,10.15,4.92,14.91,14.11,14.92c35.53,0.01,71.06,0.01,106.59,0.01
			c1.99,0,3.98,0,6.64,0c0.16,2.98,0.3,5.53,0.5,9.34c-36.91,0-73.19,0-109.47,0c4.29,6.66,8.45,11.17,16.69,11.02
			c28.62-0.5,57.25-0.19,85.88-0.19c1.98,0,3.96,0,6.39,0c0.11,2.49,0.27,4.45,0.28,6.41c0.02,33.11,0.02,66.22,0.04,99.33
			c0.01,7.18,3.03,11.3,11.02,14.47c0-40.08,0-79.86,0-119.93c3.24,0,5.7,0,8.86,0c0.09,1.91,0.26,3.84,0.26,5.76
			c0.01,40.17,0,80.34,0.01,120.5c0,6.53,3.71,11.3,11.18,13.69c0-46.77,0-93.29,0-140.03c3.28,0,5.73,0,8.61,0
			c0,257.79,0,515.33,0,773.47c-2.55,0.16-5.12,0.33-8.39,0.54c0-47.22,0-93.91,0-140.87c-8.89,3.65-11.42,7.3-11.42,15.56
			c0.02,39.83,0.03,79.66,0.03,119.49c0,1.64-0.14,3.29-0.24,5.3c-2.88,0-5.45,0-8.48,0c0-40.09,0-80,0-120.02
			c-7.41,1.94-11.52,7.07-11.51,13.95c0.02,33.11,0.03,66.22,0.05,99.33c0,2.13,0,4.27,0,7.04c-2.64,0-4.61,0-6.58,0
			c-28.12,0-56.25,0.32-84.36-0.2c-8.31-0.15-13.7,2.95-18.56,10.06c1.62,0.36,2.88,0.89,4.14,0.89
			c32.84,0.01,65.67-0.04,98.51-0.04c2.13,0,4.25,0.35,6.5,0.55c0,3.07,0,5.65,0,8.89c-2.4,0-4.36,0-6.33,0
			c-35.53,0-71.06,0-106.59,0.01c-9.7,0-14.18,4.01-15.6,14.88c42.69,0,85.26,0,128.35,0c0.25,3.28,0.43,5.5,0.65,8.44
			C1193.61,921.29,840.85,921.29,487.61,921.29z"/>
		<path class="st0" d="M1422.87,908.15c40.5,0,81.01,0,121.51,0c0,0.37,0,0.73,0,1.1c-40.5,0-81,0-121.49,0
			C1422.88,908.88,1422.88,908.52,1422.87,908.15z"/>
		<path class="st0" d="M489.88,908.11c39.1,0,78.19,0,117.29,0c0,0.33,0,0.66,0,1c-39.12,0-78.25,0-117.37,0
			C489.83,908.77,489.85,908.44,489.88,908.11z"/>
		<path class="st0" d="M477.56,84.08c-0.83,3.4-0.83,6.59-2.39,8.55c-0.88,1.11-5.47,1.1-6.34-0.01c-1.56-1.99-1.58-5.18-2.4-8.54
			C470.42,84.08,473.14,84.08,477.56,84.08z"/>
		<path class="st0" d="M1556.88,83.82c4.09,0,6.57,0,10.31,0c-0.32,3.07,0.27,6.53-1.2,8.33c-1.07,1.32-5.98,1.53-7.13,0.31
			C1557.25,90.75,1557.54,87.25,1556.88,83.82z"/>
		<path class="st0" d="M1566.77,888.53c0,3.48,0,5.93,0,9.04c-2.94,0.2-5.66,0.38-9.63,0.65c0.47-3.56-0.07-7.2,1.5-8.89
			C1559.96,887.89,1563.74,888.72,1566.77,888.53z"/>
		<path class="st0" d="M476.52,888.38c0,3.99,0,6.41,0,9.22c-2.96,0-5.54,0-9.32,0c0.3-2.98-0.36-6.54,1.09-7.95
			C469.81,888.17,473.34,888.76,476.52,888.38z"/>
		<path class="st0" d="M475.71,909.31c-5.08,0-10.16,0-15.25,0c-0.01-0.32-0.01-0.63-0.02-0.95c5.09,0,10.17,0,15.26,0
			C475.71,908.68,475.71,909,475.71,909.31z"/>
	</g>
</g>
</svg>
